<?xml version="1.0" encoding="UTF-8"?>
<svg xmlns="http://www.w3.org/2000/svg" version="1.1" viewBox="0 0 800 800">
  <defs>
    <style>
      .cls-1 {
        fill: none;
        stroke-width: 38px;
      }

      .cls-1, .cls-2 {
        stroke: #fff;
        stroke-miterlimit: 10;
      }

      .cls-2 {
        fill: #fff;
        fill-rule: evenodd;
      }
    </style>
  </defs>
  <!-- Generator: Adobe Illustrator 28.6.0, SVG Export Plug-In . SVG Version: 1.2.0 Build 709)  -->
  <g>
    <g id="Layer_1">
      <path class="cls-2" d="M436.36,200c0,13.46-7.31,25.21-18.18,31.5v4.86h127.27c30.13,0,54.55,24.42,54.55,54.55v218.18c0,30.13-24.42,54.55-54.55,54.55H254.55c-30.12,0-54.55-24.42-54.55-54.55v-218.18c0-30.12,24.42-54.55,54.55-54.55h127.27v-4.86c-10.87-6.29-18.18-18.04-18.18-31.5,0-20.08,16.28-36.36,36.36-36.36s36.36,16.28,36.36,36.36ZM254.55,272.73h290.91c10.04,0,18.18,8.14,18.18,18.18v218.18c0,10.04-8.14,18.18-18.18,18.18H254.55c-10.04,0-18.18-8.14-18.18-18.18v-218.18c0-10.04,8.14-18.18,18.18-18.18ZM454.55,372.73c0-15.06,12.21-27.27,27.27-27.27s27.27,12.21,27.27,27.27-12.21,27.27-27.27,27.27-27.27-12.21-27.27-27.27ZM481.82,309.09c-35.15,0-63.64,28.49-63.64,63.64s28.49,63.64,63.64,63.64,63.64-28.49,63.64-63.64-28.49-63.64-63.64-63.64ZM318.18,345.45c-15.06,0-27.27,12.21-27.27,27.27s12.21,27.27,27.27,27.27,27.27-12.21,27.27-27.27-12.21-27.27-27.27-27.27ZM254.55,372.73c0-35.15,28.49-63.64,63.64-63.64s63.64,28.49,63.64,63.64-28.49,63.64-63.64,63.64-63.64-28.49-63.64-63.64ZM379.9,464.6c-4.49-8.98-15.41-12.62-24.39-8.13-8.98,4.49-12.62,15.41-8.13,24.39,10.45,20.91,34.12,28.23,52.63,28.23s42.17-7.33,52.63-28.23c4.49-8.98.85-19.9-8.13-24.39-8.98-4.49-19.9-.85-24.39,8.13-1.67,3.33-8.31,8.13-20.1,8.13s-18.43-4.8-20.1-8.13Z"/>
      <circle class="cls-1" cx="400" cy="400" r="307.75"/>
    </g>
  </g>
</svg>