<?xml version="1.0" encoding="UTF-8"?>
<svg xmlns="http://www.w3.org/2000/svg" version="1.1" viewBox="0 0 653.5 653.5">
  <defs>
    <style>
      .cls-1 {
        stroke-width: 4px;
      }

      .cls-1, .cls-2, .cls-3 {
        stroke: #fff;
        stroke-miterlimit: 10;
      }

      .cls-2 {
        fill: #fff;
        fill-rule: evenodd;
        stroke-width: 5px;
      }

      .cls-3 {
        fill: none;
        stroke-width: 15px;
      }
    </style>
  </defs>
  <!-- Generator: Adobe Illustrator 28.6.0, SVG Export Plug-In . SVG Version: 1.2.0 Build 709)  -->
  <g>
    <g id="Layer_1">
      <rect class="cls-1" x="0" y="-.5" width="654" height="654" rx="323.7" ry="323.7"/>
      <path class="cls-2" d="M363.1,126.8c0,13.5-7.3,25.2-18.2,31.5v4.9h127.3c30.1,0,54.5,24.4,54.5,54.6v218.2c0,30.1-24.4,54.6-54.5,54.6H181.3c-30.1,0-54.6-24.4-54.6-54.5v-218.2c0-30.1,24.4-54.6,54.6-54.6h127.3v-4.9c-10.9-6.3-18.2-18-18.2-31.5,0-20.1,16.3-36.4,36.4-36.4s36.4,16.3,36.4,36.4h0ZM181.3,199.5h290.9c10,0,18.2,8.1,18.2,18.2v218.2c0,10-8.1,18.2-18.2,18.2H181.3c-10,0-18.2-8.1-18.2-18.2v-218.2c0-10,8.1-18.2,18.2-18.2h0ZM381.3,299.5c0-15.1,12.2-27.3,27.3-27.3s27.3,12.2,27.3,27.3-12.2,27.3-27.3,27.3-27.3-12.2-27.3-27.3ZM408.6,235.8c-35.1,0-63.6,28.5-63.6,63.6s28.5,63.6,63.6,63.6,63.6-28.5,63.6-63.6-28.5-63.6-63.6-63.6h0ZM244.9,272.2c-15.1,0-27.3,12.2-27.3,27.3s12.2,27.3,27.3,27.3,27.3-12.2,27.3-27.3-12.2-27.3-27.3-27.3h0ZM181.3,299.5c0-35.1,28.5-63.6,63.6-63.6s63.6,28.5,63.6,63.6-28.5,63.6-63.6,63.6-63.6-28.5-63.6-63.6h0ZM306.6,391.4c-4.5-9-15.4-12.6-24.4-8.1s-12.6,15.4-8.1,24.4c10.5,20.9,34.1,28.2,52.6,28.2s42.2-7.3,52.6-28.2c4.5-9,.9-19.9-8.1-24.4s-19.9-.9-24.4,8.1c-1.7,3.3-8.3,8.1-20.1,8.1s-18.4-4.8-20.1-8.1h0Z"/>
      <circle class="cls-3" cx="326.8" cy="326.8" r="307.8"/>
    </g>
  </g>
</svg>